<svg width="12" height="13" viewBox="0 0 12 13" fill="none" xmlns="http://www.w3.org/2000/svg">
<path d="M6 0C8.20914 0 10 1.79086 10 4L10.2041 4.01074C11.2128 4.113 12 4.96435 12 6V11C12 12.1046 11.1046 13 10 13H2C0.895431 13 8.05333e-09 12.1046 0 11V6C0 4.96435 0.787223 4.113 1.7959 4.01074L2 4C2 1.79086 3.79086 0 6 0ZM6 7C5.44772 7 5 7.44772 5 8V9C5 9.55229 5.44772 10 6 10C6.55228 10 7 9.55229 7 9V8C7 7.44772 6.55228 7 6 7ZM6 1.5C4.61929 1.5 3.5 2.61929 3.5 4H8.5C8.5 2.61929 7.38071 1.5 6 1.5Z" fill="#F7FAFF"/>
</svg>
