<svg width="28" height="28" viewBox="0 0 28 28" fill="none" xmlns="http://www.w3.org/2000/svg">
<mask id="path-1-outside-1_7435_4286" maskUnits="userSpaceOnUse" x="1.70508" y="2" width="24" height="24" fill="black">
<rect fill="white" x="1.70508" y="2" width="24" height="24"/>
<path d="M14.9993 4C15.5516 4 15.9993 4.44772 15.9993 5V6.25195C17.4291 6.61992 18.7032 7.37415 19.7064 8.39551L20.7942 7.76855C21.2724 7.49266 21.8832 7.65593 22.1595 8.13379L23.1595 9.86621C23.4356 10.3444 23.2723 10.9562 22.7942 11.2324L21.7073 11.8594C21.8962 12.5409 21.9993 13.2584 21.9993 14C21.9993 14.7418 21.8953 15.459 21.7064 16.1406L22.7942 16.7686C23.2721 17.0448 23.4354 17.6557 23.1595 18.1338L22.1595 19.8662C21.8834 20.3443 21.2725 20.5082 20.7942 20.2324L19.7054 19.6035C18.7023 20.6248 17.4291 21.3801 15.9993 21.748V23C15.9993 23.5523 15.5516 24 14.9993 24H12.9993C12.4472 23.9999 11.9993 23.5522 11.9993 23V21.7471C10.5695 21.379 9.29536 20.625 8.29229 19.6035L7.20538 20.2324C6.72709 20.5086 6.11531 20.3445 5.83917 19.8662L4.83917 18.1338C4.56337 17.6556 4.72731 17.0447 5.20538 16.7686L6.29132 16.1406C6.10246 15.4591 5.99935 14.7416 5.99933 14C5.99933 13.2585 6.10251 12.5408 6.29132 11.8594L5.20538 11.2324C4.72709 10.9563 4.56303 10.3445 4.83917 9.86621L5.83917 8.13379C6.11539 7.65571 6.72718 7.49247 7.20538 7.76855L8.29132 8.39551C9.29445 7.37388 10.5693 6.62006 11.9993 6.25195V5C11.9993 4.4478 12.4472 4.00014 12.9993 4H14.9993Z"/>
</mask>
<path d="M15.9993 5H17.9993H15.9993ZM15.9993 6.25195H13.9993C13.9993 7.16454 14.6171 7.96139 15.5009 8.18884L15.9993 6.25195ZM19.7064 8.39551L18.2795 9.79693C18.918 10.4471 19.9154 10.5834 20.705 10.1283L19.7064 8.39551ZM20.7942 7.76855L21.7929 9.50139L21.7939 9.50083L20.7942 7.76855ZM22.1595 8.13379L23.8916 7.13395L23.891 7.13284L22.1595 8.13379ZM23.1595 9.86621L21.4273 10.8661L21.4274 10.8662L23.1595 9.86621ZM22.7942 11.2324L23.7936 12.9649L23.7948 12.9641L22.7942 11.2324ZM21.7073 11.8594L20.708 10.1269C19.9182 10.5825 19.5365 11.5147 19.78 12.3934L21.7073 11.8594ZM21.9993 14L23.9993 14.0001V14H21.9993ZM21.7064 16.1406L19.779 15.6064C19.5355 16.485 19.917 17.417 20.7066 17.8728L21.7064 16.1406ZM22.7942 16.7686L23.7952 15.0371L23.7941 15.0364L22.7942 16.7686ZM23.1595 18.1338L24.8916 19.1336L24.8918 19.1334L23.1595 18.1338ZM22.1595 19.8662L23.8914 20.8664L23.8916 20.8661L22.1595 19.8662ZM20.7942 20.2324L19.794 21.9643L19.795 21.9649L20.7942 20.2324ZM19.7054 19.6035L20.7057 17.8716C19.9159 17.4155 18.9176 17.5514 18.2785 18.202L19.7054 19.6035ZM15.9993 21.748L15.5009 19.8112C14.6171 20.0386 13.9993 20.8354 13.9993 21.748H15.9993ZM15.9993 23H17.9993H15.9993ZM12.9993 24L12.9988 26H12.9993V24ZM11.9993 23H9.99933H11.9993ZM11.9993 21.7471H13.9993C13.9993 20.8345 13.3817 20.0377 12.4979 19.8102L11.9993 21.7471ZM8.29229 19.6035L9.71932 18.2022C9.07985 17.551 8.08063 17.4153 7.29065 17.8724L8.29229 19.6035ZM7.20538 20.2324L8.20535 21.9645L8.20702 21.9635L7.20538 20.2324ZM5.83917 19.8662L4.10703 20.8661L4.10712 20.8662L5.83917 19.8662ZM4.83917 18.1338L3.10667 19.133L3.10703 19.1336L4.83917 18.1338ZM5.20538 16.7686L6.20561 18.5005L6.20653 18.4999L5.20538 16.7686ZM6.29132 16.1406L7.29247 17.872C8.08118 17.4159 8.46199 16.4845 8.21868 15.6065L6.29132 16.1406ZM5.99933 14H3.99933V14.0001L5.99933 14ZM6.29132 11.8594L8.2187 12.3934C8.4621 11.515 8.08072 10.5831 7.2913 10.1273L6.29132 11.8594ZM5.20538 11.2324L4.20537 12.9645L4.2054 12.9645L5.20538 11.2324ZM4.83917 9.86621L6.57122 10.8662L6.57131 10.8661L4.83917 9.86621ZM5.83917 8.13379L4.10743 7.13325L4.10703 7.13395L5.83917 8.13379ZM7.20538 7.76855L6.20539 9.50061L6.2054 9.50061L7.20538 7.76855ZM8.29132 8.39551L7.29133 10.1276C8.08115 10.5836 9.07943 10.4475 9.71839 9.79674L8.29132 8.39551ZM11.9993 6.25195L12.4979 8.18881C13.3816 7.96132 13.9993 7.16449 13.9993 6.25195H11.9993ZM11.9993 5L9.99933 5V5H11.9993ZM12.9993 4V2L12.9988 2L12.9993 4ZM14.9993 4V6C14.447 6 13.9993 5.55228 13.9993 5H15.9993H17.9993C17.9993 3.34315 16.6562 2 14.9993 2V4ZM15.9993 5H13.9993V6.25195H15.9993H17.9993V5H15.9993ZM15.9993 6.25195L15.5009 8.18884C16.5683 8.46354 17.524 9.02774 18.2795 9.79693L19.7064 8.39551L21.1332 6.99409C19.8824 5.72055 18.29 4.7763 16.4978 4.31507L15.9993 6.25195ZM19.7064 8.39551L20.705 10.1283L21.7929 9.50139L20.7942 7.76855L19.7956 6.03572L18.7077 6.66267L19.7064 8.39551ZM20.7942 7.76855L21.7939 9.50083C21.3168 9.77613 20.7048 9.61365 20.428 9.13474L22.1595 8.13379L23.891 7.13284C23.0617 5.69822 21.2279 5.20919 19.7946 6.03628L20.7942 7.76855ZM22.1595 8.13379L20.4273 9.13363L21.4273 10.8661L23.1595 9.86621L24.8916 8.86637L23.8916 7.13395L22.1595 8.13379ZM23.1595 9.86621L21.4274 10.8662C21.1524 10.3898 21.3138 9.77799 21.7937 9.50071L22.7942 11.2324L23.7948 12.9641C25.2309 12.1344 25.7187 10.299 24.8915 8.86621L23.1595 9.86621ZM22.7942 11.2324L21.7949 9.49997L20.708 10.1269L21.7073 11.8594L22.7066 13.5918L23.7936 12.9649L22.7942 11.2324ZM21.7073 11.8594L19.78 12.3934C19.9222 12.9068 19.9993 13.4448 19.9993 14H21.9993H23.9993C23.9993 13.072 23.8701 12.1749 23.6347 11.3253L21.7073 11.8594ZM21.9993 14L19.9993 13.9999C19.9993 14.5537 19.9218 15.0914 19.779 15.6064L21.7064 16.1406L23.6337 16.6749C23.8688 15.8267 23.9993 14.9298 23.9993 14.0001L21.9993 14ZM21.7064 16.1406L20.7066 17.8728L21.7944 18.5007L22.7942 16.7686L23.7941 15.0364L22.7062 14.4085L21.7064 16.1406ZM22.7942 16.7686L21.7933 18.5C21.3144 18.2232 21.1519 17.6113 21.4272 17.1342L23.1595 18.1338L24.8918 19.1334C25.7189 17.7001 25.2298 15.8664 23.7952 15.0371L22.7942 16.7686ZM23.1595 18.1338L21.4273 17.1339L20.4273 18.8664L22.1595 19.8662L23.8916 20.8661L24.8916 19.1336L23.1595 18.1338ZM22.1595 19.8662L20.4275 18.866C20.7034 18.3884 21.3148 18.2239 21.7935 18.4999L20.7942 20.2324L19.795 21.9649C21.2301 22.7926 23.0634 22.3002 23.8914 20.8664L22.1595 19.8662ZM20.7942 20.2324L21.7945 18.5005L20.7057 17.8716L19.7054 19.6035L18.7051 21.3354L19.794 21.9643L20.7942 20.2324ZM19.7054 19.6035L18.2785 18.202C17.5221 18.9722 16.5669 19.5368 15.5009 19.8112L15.9993 21.748L16.4978 23.6849C18.2913 23.2234 19.8824 22.2774 21.1322 21.005L19.7054 19.6035ZM15.9993 21.748H13.9993V23H15.9993H17.9993V21.748H15.9993ZM15.9993 23H13.9993C13.9993 22.4477 14.447 22 14.9993 22V24V26C16.6562 26 17.9993 24.6569 17.9993 23H15.9993ZM14.9993 24V22H12.9993V24V26H14.9993V24ZM12.9993 24L12.9998 22C13.5513 22.0001 13.9993 22.4471 13.9993 23H11.9993H9.99933C9.99933 24.6573 11.343 25.9996 12.9988 26L12.9993 24ZM11.9993 23H13.9993V21.7471H11.9993H9.99933V23H11.9993ZM11.9993 21.7471L12.4979 19.8102C11.4302 19.5353 10.4745 18.9712 9.71932 18.2022L8.29229 19.6035L6.86527 21.0048C8.11625 22.2788 9.70881 23.2226 11.5007 23.6839L11.9993 21.7471ZM8.29229 19.6035L7.29065 17.8724L6.20374 18.5013L7.20538 20.2324L8.20702 21.9635L9.29394 21.3346L8.29229 19.6035ZM7.20538 20.2324L6.20541 18.5004C6.68408 18.224 7.2953 18.3883 7.57122 18.8662L5.83917 19.8662L4.10712 20.8662C4.93532 22.3007 6.7701 22.7931 8.20535 21.9645L7.20538 20.2324ZM5.83917 19.8662L7.57131 18.8664L6.57131 17.1339L4.83917 18.1338L3.10703 19.1336L4.10703 20.8661L5.83917 19.8662ZM4.83917 18.1338L6.57167 17.1346C6.84777 17.6133 6.6832 18.2247 6.20561 18.5005L5.20538 16.7686L4.20515 15.0366C2.77143 15.8647 2.27898 17.6979 3.10667 19.133L4.83917 18.1338ZM5.20538 16.7686L6.20653 18.4999L7.29247 17.872L6.29132 16.1406L5.29017 14.4092L4.20423 15.0372L5.20538 16.7686ZM6.29132 16.1406L8.21868 15.6065C8.07643 15.0932 7.99934 14.5553 7.99933 13.9999L5.99933 14L3.99933 14.0001C3.99935 14.928 4.12848 15.825 4.36396 16.6748L6.29132 16.1406ZM5.99933 14H7.99933C7.99933 13.4449 8.07646 12.9068 8.2187 12.3934L6.29132 11.8594L4.36393 11.3253C4.12856 12.1748 3.99933 13.072 3.99933 14H5.99933ZM6.29132 11.8594L7.2913 10.1273L6.20536 9.50036L5.20538 11.2324L4.2054 12.9645L5.29133 13.5914L6.29132 11.8594ZM5.20538 11.2324L6.20539 9.50038C6.68326 9.77628 6.84761 10.3875 6.57122 10.8662L4.83917 9.86621L3.10711 8.86622C2.27846 10.3015 2.77093 12.1363 4.20537 12.9645L5.20538 11.2324ZM4.83917 9.86621L6.57131 10.8661L7.57131 9.13363L5.83917 8.13379L4.10703 7.13395L3.10703 8.86637L4.83917 9.86621ZM5.83917 8.13379L7.57091 9.13433C7.29359 9.6143 6.68171 9.77561 6.20539 9.50061L7.20538 7.76855L8.20537 6.0365C6.77265 5.20933 4.93718 5.69712 4.10743 7.13325L5.83917 8.13379ZM7.20538 7.76855L6.2054 9.50061L7.29133 10.1276L8.29132 8.39551L9.2913 6.66345L8.20536 6.03649L7.20538 7.76855ZM8.29132 8.39551L9.71839 9.79674C10.4732 9.02799 11.4296 8.46383 12.4979 8.18881L11.9993 6.25195L11.5007 4.3151C9.70914 4.77629 8.11566 5.71978 6.86425 6.99427L8.29132 8.39551ZM11.9993 6.25195H13.9993V5H11.9993H9.99933V6.25195H11.9993ZM11.9993 5L13.9993 5C13.9993 5.55287 13.5513 5.99986 12.9998 6L12.9993 4L12.9988 2C11.343 2.00041 9.99933 3.34274 9.99933 5L11.9993 5ZM12.9993 4V6H14.9993V4V2H12.9993V4Z" fill="#757B8B" mask="url(#path-1-outside-1_7435_4286)"/>
<circle cx="14" cy="13.9998" r="3" stroke="#757B8B" stroke-width="2"/>
</svg>
