<svg width="28" height="28" viewBox="0 0 28 28" fill="none" xmlns="http://www.w3.org/2000/svg">
<path d="M14 4.5C19.5228 4.5 24 8.97715 24 14.5C24 20.0228 19.5228 24.5 14 24.5C8.47715 24.5 4 20.0228 4 14.5C4 8.97715 8.47715 4.5 14 4.5ZM14 8.5C13.4477 8.5 13 8.94772 13 9.5V14.5C13 15.0523 13.4477 15.5 14 15.5H17L17.1025 15.4951C17.6067 15.4438 18 15.0177 18 14.5C18 13.9823 17.6067 13.5562 17.1025 13.5049L17 13.5H15V9.5C15 8.94772 14.5523 8.5 14 8.5Z" fill="#131418"/>
<path d="M4 6.5L8 3.5M24 6.5L20 3.5" stroke="#131418" stroke-width="2" stroke-linecap="round"/>
</svg>
