<svg width="32" height="32" viewBox="0 0 32 32" fill="none" xmlns="http://www.w3.org/2000/svg">
<path d="M18.2299 5.87119C16.6299 0.671189 14.5633 3.70452 13.7299 5.87119C12.9299 8.27127 11.0633 7.87116 10.23 7.37109C5.82998 4.97109 6.39662 8.03776 7.22994 9.87109C8.8299 12.2711 7.22999 13.5378 6.23004 13.8711C0.630035 15.8711 3.56337 17.3711 5.73004 17.8711C8.53004 18.6711 7.89664 21.2044 7.22994 22.3711C5.22994 26.3711 8.06327 25.7044 9.72994 24.8711C12.1299 23.2711 13.3966 24.8711 13.7299 25.8711C15.7299 31.4711 17.8966 28.2044 18.7299 25.8711C19.5299 23.8711 21.3966 24.3711 22.2299 24.8711C27.0299 27.2711 25.8966 23.8711 24.7299 21.8711C23.5299 19.8711 24.8966 18.7044 25.7299 18.3711C31.2299 16.3711 29.2299 14.8711 26.2299 13.8711C23.8299 13.0711 24.2299 11.2044 24.7299 10.3711C27.9299 4.77109 24.0633 6.03776 21.7299 7.37109C19.3299 8.57102 18.3966 6.87113 18.2299 5.87119Z" fill="#F1BA02"/>
<circle cx="16" cy="16.5" r="7.5" fill="#F7DC81"/>
</svg>
